Starting recording...
Output path: /home/shane/Videos/20241229_015245.mp4
ffmpeg version 5.1.6-0+deb12u1 Copyright (c) 2000-2024 the FFmpeg developers
  built with gcc 12 (Debian 12.2.0-14)
  configuration: --prefix=/usr --extra-version=0+deb12u1 --toolchain=hardened --libdir=/usr/lib/x86_64-linux-gnu --incdir=/usr/include/x86_64-linux-gnu --arch=amd64 --enable-gpl --disable-stripping --enable-gnutls --enable-ladspa --enable-libaom --enable-libass --enable-libbluray --enable-libbs2b --enable-libcaca --enable-libcdio --enable-libcodec2 --enable-libdav1d --enable-libflite --enable-libfontconfig --enable-libfreetype --enable-libfribidi --enable-libglslang --enable-libgme --enable-libgsm --enable-libjack --enable-libmp3lame --enable-libmysofa --enable-libopenjpeg --enable-libopenmpt --enable-libopus --enable-libpulse --enable-librabbitmq --enable-librist --enable-librubberband --enable-libshine --enable-libsnappy --enable-libsoxr --enable-libspeex --enable-libsrt --enable-libssh --enable-libsvtav1 --enable-libtheora --enable-libtwolame --enable-libvidstab --enable-libvorbis --enable-libvpx --enable-libwebp --enable-libx265 --enable-libxml2 --enable-libxvid --enable-libzimg --enable-libzmq --enable-libzvbi --enable-lv2 --enable-omx --enable-openal --enable-opencl --enable-opengl --enable-sdl2 --disable-sndio --enable-libjxl --enable-pocketsphinx --enable-librsvg --enable-libmfx --enable-libdc1394 --enable-libdrm --enable-libiec61883 --enable-chromaprint --enable-frei0r --enable-libx264 --enable-libplacebo --enable-librav1e --enable-shared
  WARNING: library configuration mismatch
  avcodec     configuration: --prefix=/usr --extra-version=0+deb12u1 --toolchain=hardened --libdir=/usr/lib/x86_64-linux-gnu --incdir=/usr/include/x86_64-linux-gnu --arch=amd64 --enable-gpl --disable-stripping --enable-gnutls --enable-ladspa --enable-libaom --enable-libass --enable-libbluray --enable-libbs2b --enable-libcaca --enable-libcdio --enable-libcodec2 --enable-libdav1d --enable-libflite --enable-libfontconfig --enable-libfreetype --enable-libfribidi --enable-libglslang --enable-libgme --enable-libgsm --enable-libjack --enable-libmp3lame --enable-libmysofa --enable-libopenjpeg --enable-libopenmpt --enable-libopus --enable-libpulse --enable-librabbitmq --enable-librist --enable-librubberband --enable-libshine --enable-libsnappy --enable-libsoxr --enable-libspeex --enable-libsrt --enable-libssh --enable-libsvtav1 --enable-libtheora --enable-libtwolame --enable-libvidstab --enable-libvorbis --enable-libvpx --enable-libwebp --enable-libx265 --enable-libxml2 --enable-libxvid --enable-libzimg --enable-libzmq --enable-libzvbi --enable-lv2 --enable-omx --enable-openal --enable-opencl --enable-opengl --enable-sdl2 --disable-sndio --enable-libjxl --enable-pocketsphinx --enable-librsvg --enable-libmfx --enable-libdc1394 --enable-libdrm --enable-libiec61883 --enable-chromaprint --enable-frei0r --enable-libx264 --enable-libplacebo --enable-librav1e --enable-shared --enable-version3 --disable-doc --disable-programs --enable-libaribb24 --enable-libopencore_amrnb --enable-libopencore_amrwb --enable-libtesseract --enable-libvo_amrwbenc --enable-libsmbclient
  libavutil      57. 28.100 / 57. 28.100
  libavcodec     59. 37.100 / 59. 37.100
  libavformat    59. 27.100 / 59. 27.100
  libavdevice    59.  7.100 / 59.  7.100
  libavfilter     8. 44.100 /  8. 44.100
  libswscale      6.  7.100 /  6.  7.100
  libswresample   4.  7.100 /  4.  7.100
  libpostproc    56.  6.100 / 56.  6.100
[x11grab @ 0x5609603a2040] Stream #0: not enough frames to estimate rate; consider increasing probesize
Input #0, x11grab, from ':0':
  Duration: N/A, start: 1735437165.667078, bitrate: 1988667 kb/s
  Stream #0:0: Video: rawvideo (BGR[0] / 0x524742), bgr0, 1920x1080, 1988667 kb/s, 29.97 fps, 1000k tbr, 1000k tbn
Stream mapping:
  Stream #0:0 -> #0:0 (rawvideo (native) -> h264 (libx264))
Press [q] to stop, [?] for help
[libx264 @ 0x5609603af300] using cpu capabilities: MMX2 SSE2Fast SSSE3 SSE4.2 AVX FMA3 BMI2 AVX2 AVX512
[libx264 @ 0x5609603af300] profile High 4:4:4 Predictive, level 4.0, 4:4:4, 8-bit
[libx264 @ 0x5609603af300] 264 - core 164 r3095 baee400 - H.264/MPEG-4 AVC codec - Copyleft 2003-2022 - http://www.videolan.org/x264.html - options: cabac=1 ref=3 deblock=1:0:0 analyse=0x3:0x113 me=hex subme=7 psy=1 psy_rd=1.00:0.00 mixed_ref=1 me_range=16 chroma_me=1 trellis=1 8x8dct=1 cqm=0 deadzone=21,11 fast_pskip=1 chroma_qp_offset=4 threads=12 lookahead_threads=2 sliced_threads=0 nr=0 decimate=1 interlaced=0 bluray_compat=0 constrained_intra=0 bframes=3 b_pyramid=2 b_adapt=1 b_bias=0 direct=1 weightb=1 open_gop=0 weightp=2 keyint=250 keyint_min=25 scenecut=40 intra_refresh=0 rc_lookahead=40 rc=crf mbtree=1 crf=23.0 qcomp=0.60 qpmin=0 qpmax=69 qpstep=4 ip_ratio=1.40 aq=1:1.00
Output #0, mp4, to '/home/shane/Videos/20241229_015245.mp4':
  Metadata:
    encoder         : Lavf59.27.100
  Stream #0:0: Video: h264 (avc1 / 0x31637661), yuv444p(tv, progressive), 1920x1080, q=2-31, 29.97 fps, 30k tbn
    Metadata:
      encoder         : Lavc59.37.100 libx264
    Side data:
      cpb: bitrate max/min/avg: 0/0/0 buffer size: 0 vbv_delay: N/A
frame=    1 fps=0.0 q=0.0 size=       0kB time=00:00:00.00 bitrate=N/A speed=N/A    frame=   19 fps=0.0 q=0.0 size=       0kB time=00:00:00.00 bitrate=N/A dup=1 drop=0 speed=   0x    frame=   34 fps= 33 q=0.0 size=       0kB time=00:00:00.00 bitrate=N/A dup=1 drop=0 speed=   0x    frame=   50 fps= 32 q=0.0 size=       0kB time=00:00:00.00 bitrate=N/A dup=1 drop=0 speed=   0x    frame=   66 fps= 32 q=29.0 size=     256kB time=00:00:00.23 bitrate=8979.2kbits/s dup=1 drop=0 speed=0.112x    frame=   81 fps= 31 q=29.0 size=     256kB time=00:00:00.73 bitrate=2857.3kbits/s dup=1 drop=0 speed=0.283x    frame=   96 fps= 31 q=29.0 size=     256kB time=00:00:01.23 bitrate=1699.0kbits/s dup=1 drop=0 speed=0.399x    frame=  111 fps= 31 q=29.0 size=     256kB time=00:00:01.73 bitrate=1208.9kbits/s dup=1 drop=0 speed=0.483x    frame=  126 fps= 31 q=29.0 size=     256kB time=00:00:02.23 bitrate= 938.2kbits/s dup=1 drop=0 speed=0.546x    frame=  141 fps= 31 q=29.0 size=     256kB time=00:00:02.73 bitrate= 766.6kbits/s dup=1 drop=0 speed=0.595x    frame=  157 fps= 31 q=29.0 size=     256kB time=00:00:03.26 bitrate= 641.5kbits/s dup=1 drop=0 speed=0.638x    frame=  172 fps= 31 q=29.0 size=     256kB time=00:00:03.77 bitrate= 556.3kbits/s dup=1 drop=0 speed=0.67x    frame=  187 fps= 31 q=29.0 size=     256kB time=00:00:04.27 bitrate= 491.1kbits/s dup=1 drop=0 speed=0.697x    frame=  202 fps= 30 q=29.0 size=     256kB time=00:00:04.77 bitrate= 439.6kbits/s dup=1 drop=0 speed=0.72x    frame=  217 fps= 30 q=29.0 size=     256kB time=00:00:05.27 bitrate= 397.9kbits/s dup=1 drop=0 speed=0.739x    frame=  232 fps= 30 q=29.0 size=     256kB time=00:00:05.77 bitrate= 363.4kbits/s dup=1 drop=0 speed=0.757x    frame=  247 fps= 30 q=29.0 size=     256kB time=00:00:06.27 bitrate= 334.4kbits/s dup=1 drop=0 speed=0.772x    frame=  262 fps= 30 q=29.0 size=     256kB time=00:00:06.77 bitrate= 309.7kbits/s dup=1 drop=0 speed=0.785x    frame=  277 fps= 30 q=29.0 size=     256kB time=00:00:07.27 bitrate= 288.4kbits/s dup=1 drop=0 speed=0.797x    frame=  292 fps= 30 q=29.0 size=     256kB time=00:00:07.77 bitrate= 269.8kbits/s dup=1 drop=0 speed=0.807x    frame=  302 fps= 29 q=-1.0 Lsize=     911kB time=00:00:09.97 bitrate= 748.0kbits/s dup=1 drop=0 speed=0.967x    
video:907kB audio:0kB subtitle:0kB other streams:0kB global headers:0kB muxing overhead: 0.481688%
[libx264 @ 0x5609603af300] frame I:2     Avg QP:16.38  size:447328
[libx264 @ 0x5609603af300] frame P:76    Avg QP:22.42  size:   219
[libx264 @ 0x5609603af300] frame B:224   Avg QP:32.47  size:    73
[libx264 @ 0x5609603af300] consecutive B-frames:  1.0%  0.0%  1.0% 98.0%
[libx264 @ 0x5609603af300] mb I  I16..4: 14.5% 25.7% 59.8%
[libx264 @ 0x5609603af300] mb P  I16..4:  0.0%  0.0%  0.0%  P16..4:  0.1%  0.0%  0.0%  0.0%  0.0%    skip:99.8%
[libx264 @ 0x5609603af300] mb B  I16..4:  0.0%  0.0%  0.0%  B16..8:  0.1%  0.0%  0.0%  direct: 0.0%  skip:99.9%  L0:22.7% L1:76.9% BI: 0.4%
[libx264 @ 0x5609603af300] 8x8 transform intra:25.4% inter:55.1%
[libx264 @ 0x5609603af300] coded y,u,v intra: 91.0% 1.2% 3.7% inter: 0.0% 0.0% 0.0%
[libx264 @ 0x5609603af300] i16 v,h,dc,p: 21% 66% 12%  2%
[libx264 @ 0x5609603af300] i8 v,h,dc,ddl,ddr,vr,hd,vl,hu:  6%  5% 19%  6% 44%  4%  4%  6%  6%
[libx264 @ 0x5609603af300] i4 v,h,dc,ddl,ddr,vr,hd,vl,hu:  7% 12% 10%  6% 41%  7%  6%  6%  6%
[libx264 @ 0x5609603af300] Weighted P-Frames: Y:0.0% UV:0.0%
[libx264 @ 0x5609603af300] ref P L0: 76.2%  4.9% 14.1%  4.7%
[libx264 @ 0x5609603af300] ref B L0: 91.3%  6.7%  2.1%
[libx264 @ 0x5609603af300] ref B L1: 77.5% 22.5%
[libx264 @ 0x5609603af300] kb/s:736.52
Exiting normally, received signal 15.
